<svg t="1719132053867" class="icon" viewBox="0 0 1024 1024" version="1.1" xmlns="http://www.w3.org/2000/svg" p-id="48315" width="200" height="200"><path d="M936.533333 132.096l-44.373333-44.373333a8.661333 8.661333 0 0 0-11.946667 0l-79.616 79.616a208.469333 208.469333 0 0 0-117.248-35.84 208.64 208.64 0 0 0-148.053333 61.269333l-106.581333 106.624a8.405333 8.405333 0 0 0 0 11.818667l284.202666 284.202666c1.706667 1.706667 3.797333 2.432 5.973334 2.432 2.133333 0 4.266667-0.853333 5.973333-2.432l106.581333-106.581333a209.450667 209.450667 0 0 0 25.429334-265.216l79.616-79.573333a8.533333 8.533333 0 0 0 0-11.946667z m-155.477333 306.432l-62.165333 62.122667-195.413334-195.413334 62.165334-62.165333a137.386667 137.386667 0 0 1 97.706666-40.448c36.906667 0 71.552 14.293333 97.706667 40.448 26.026667 26.069333 40.448 60.8 40.448 97.706667 0 36.949333-14.421333 71.594667-40.448 97.706666z m-198.997333 109.824a8.405333 8.405333 0 0 0-11.818667 0l-69.674667 69.674667-94.464-94.464 69.76-69.802667a8.405333 8.405333 0 0 0 0-11.818667l-38.058666-38.058666a8.405333 8.405333 0 0 0-11.818667 0l-69.76 69.76-45.013333-44.970667a8.234667 8.234667 0 0 0-5.973334-2.389333c-2.090667 0-4.266667 0.853333-5.973333 2.389333L192.853333 535.253333a209.450667 209.450667 0 0 0-25.429333 265.216l-79.616 79.616a8.405333 8.405333 0 0 0 0 11.818667l44.373333 44.373333a8.661333 8.661333 0 0 0 11.946667 0l79.573333-79.616a208.469333 208.469333 0 0 0 117.290667 35.84 208.64 208.64 0 0 0 148.010667-61.269333l106.581333-106.624a8.405333 8.405333 0 0 0 0-11.818667l-44.970667-44.970666 69.802667-69.76a8.405333 8.405333 0 0 0 0-11.818667l-38.314667-37.888z m-143.530667 232.661333a137.386667 137.386667 0 0 1-97.706667 40.490667 137.130667 137.130667 0 0 1-97.706666-40.490667 137.386667 137.386667 0 0 1-40.490667-97.706666c0-36.949333 14.336-71.552 40.490667-97.706667l62.122666-62.165333 195.413334 195.413333-62.122667 62.165333z" fill="#000000" p-id="48316"></path></svg>