<svg t="1719135578081" class="icon" viewBox="0 0 1024 1024" version="1.1" xmlns="http://www.w3.org/2000/svg" p-id="105784" width="200" height="200"><path d="M319.490048 852.941824h-82.719744c-14.564352 0-26.800128-12.235776-26.800128-26.796032V609.284096c0-40.195072-26.796032-73.982976-80.386048-100.196352 43.10528-23.302144 80.386048-55.923712 80.386048-100.78208v-210.45248c0-14.559232 12.235776-26.795008 26.800128-26.795008h80.391168c22.720512 0 40.777728-18.057216 40.777728-40.777728 0-22.720512-18.057216-40.777728-40.777728-40.777728h-80.391168c-60.005376 0-108.356608 48.933888-108.356608 108.350464v209.871872c-4.657152 15.72864-29.945856 47.768576-97.519616 64.662528-18.638848 4.661248-31.45728 21.5552-30.874624 40.776704 0.581632 19.227648 14.563328 35.538944 33.204224 39.031808 80.391168 15.147008 95.19104 47.186944 95.19104 57.089024v216.861696c0 60.000256 48.933888 108.351488 108.356608 108.351488h82.719744c22.720512 0 40.777728-18.057216 40.777728-40.777728s-18.640896-40.778752-40.778752-40.778752zM991.361024 471.804928c-70.484992-13.401088-91.112448-46.021632-91.112448-65.826816V197.853184c0-59.999232-48.93184-108.350464-108.355584-108.350464h-93.20448c-22.720512 0-40.777728 18.057216-40.777728 40.777728 0 22.720512 18.057216 40.777728 40.777728 40.777728h93.20448c14.564352 0 26.800128 12.235776 26.800128 26.795008v208.124928c0 29.712384 13.9776 70.489088 75.147264 104.858624-40.19712 22.137856-75.147264 55.341056-75.147264 104.8576v210.45248c0 14.560256-12.235776 26.796032-26.800128 26.796032H694.02624c-22.714368 0-40.776704 18.057216-40.776704 40.777728s18.062336 40.777728 40.776704 40.777728h97.284096c60.005376 0 108.356608-48.933888 108.356608-108.351488v-210.45248c0-26.796032 38.102016-54.760448 89.946112-63.49824 19.810304-2.911232 33.78688-19.80416 34.368512-39.61344 0.58368-19.805184-13.39392-36.698112-32.620544-40.777728z" fill="#303537" p-id="105785"></path></svg>