<svg t="1719133493379" class="icon" viewBox="0 0 1024 1024" version="1.1" xmlns="http://www.w3.org/2000/svg" p-id="71621" width="200" height="200"><path d="M622.069191 171.804444c-49.607111-7.395556-96.540444 23.267556-106.097778 69.290667l-0.284444 1.365333L400.543858 852.024889l1.536 0.227555c49.607111 7.395556 96.540444-23.324444 106.097778-69.347555l0.284444-1.365333L623.548302 171.975111l-1.536-0.227555zM276.355413 231.708444L17.112747 473.6l-0.682667 0.625778a51.712 51.712 0 0 0 0 75.548444l0.682667 0.568889 259.242666 241.891556 1.080889-1.024a82.716444 82.716444 0 0 0 0-120.775111l-1.137778-1.024L107.679858 512l168.732444-157.411556c36.010667-33.564444 36.352-87.836444 1.080889-121.799111l-1.137778-1.024z m471.381334 0a82.830222 82.830222 0 0 0 0 122.88L916.52608 512l-168.732444 157.411556a82.773333 82.773333 0 0 0-1.080889 121.799111l1.137777 1.024L1006.979413 550.4a51.768889 51.768889 0 0 0 0.682667-76.174222l-0.682667-0.568889-259.242666-241.891556z" fill="#4F5B6F" p-id="71622"></path></svg>