<svg t="1718283663438" class="icon" viewBox="0 0 1042 1024" version="1.1" xmlns="http://www.w3.org/2000/svg" p-id="6309" width="200" height="200"><path d="M928.914286 109.714286h-804.571429c-20.114286 0-36.571429 16.457143-36.571428 36.571428v731.428572c0 20.114286 16.457143 36.571429 36.571428 36.571428h804.571429c20.114286 0 36.571429-16.457143 36.571428-36.571428V146.285714c0-20.114286-16.457143-36.571429-36.571428-36.571428z m-109.714286 74.971428h31.085714l-31.085714 31.085715v-31.085715z m-73.142857 656.457143h-585.142857V182.857143h585.142857v658.285714z m73.142857-241.371428l73.142857-73.142858v36.571429l-73.142857 73.142857v-36.571428z m0-104.228572v-36.571428l73.142857-73.142858v36.571429l-73.142857 73.142857z m0-140.8v-36.571428l73.142857-73.142858v36.571429l-73.142857 73.142857zM857.6 841.142857l34.742857-34.742857V841.142857h-34.742857z m-38.4-65.828571v-36.571429l73.142857-73.142857v36.571429l-73.142857 73.142857z" p-id="6310"></path><path d="M404.114286 729.6c3.657143 1.828571 9.142857 3.657143 14.628571 3.657143 9.142857 0 18.285714-3.657143 25.6-10.971429l182.857143-182.857143c14.628571-14.628571 14.628571-36.571429 0-51.2l-182.857143-182.857142c-10.971429-10.971429-25.6-12.8-40.228571-7.314286-14.628571 5.485714-21.942857 18.285714-21.942857 32.914286v365.714285c-1.828571 12.8 7.314286 27.428571 21.942857 32.914286z m49.371428-310.857143l95.085715 95.085714-95.085715 95.085715V418.742857z" p-id="6311"></path></svg>