<svg t="1719134729973" class="icon" viewBox="0 0 1024 1024" version="1.1" xmlns="http://www.w3.org/2000/svg" p-id="75960" width="200" height="200"><path d="M271.3 498.1c-7.6 0-15.3-2.4-21.8-7.4l-137-104.6c-13.7-9.6-21.9-25.2-21.9-42.1 0-16.8 8.1-32.4 21.9-42.1l137-104.6c15.8-12 38.3-9 50.3 6.8s9 38.3-6.8 50.4l-117.4 89.6L293 433.7c15.8 12 18.8 34.6 6.8 50.4-7 9.2-17.7 14-28.5 14z" fill="#1A1A1A" p-id="75961"></path><path d="M673 831H488.2c-19.8 0-35.9-16.1-35.9-35.9s16.1-35.9 35.9-35.9H673c104.8 0 190-85.2 190-190 0-104.7-85.2-189.9-189.9-189.9H192.2c-19.8 0-35.9-16.1-35.9-35.9s16.1-35.9 35.9-35.9H673c144.3 0 261.8 117.4 261.8 261.8S817.4 831 673 831z" fill="#1A1A1A" p-id="75962"></path></svg>