<svg t="1718281577878" class="icon" viewBox="0 0 1132 1024" version="1.1" xmlns="http://www.w3.org/2000/svg" p-id="4276" width="200" height="200"><path d="M1097.688802 515.053607q9.215671 0 16.895397 6.655762t11.775579 17.407378 2.559909 24.575122-11.775579 29.182958q-20.479269 30.718903-50.68619 77.821221t-76.285276 103.420307q-13.311525 16.383415-25.599086 22.527196t-27.647013 4.095854q-16.383415-2.047927-25.599086-14.335488t-24.575122-27.647013q-22.527196-22.527196-43.518446-49.662227t-38.398629-52.222135-29.69494-44.542409-16.383415-26.623049q-10.239634-15.359452-11.775579-28.670976t2.047927-22.527196 10.239634-14.335488 13.823506-5.119817l104.44427 0q0-74.749331-30.206921-147.962716t-86.52491-129.531374q-52.222135-52.222135-119.803722-77.309239t-138.235064-24.063141-137.723082 27.647013-119.29174 78.845184-81.405093 121.851649-32.254848 143.354881 20.99125 142.842899 77.309239 119.29174q47.102318 43.006464 94.204636 68.093568t92.156709 36.350702 86.012928 10.239634 75.261312-9.215671 60.925824-22.015214 41.982501-28.158994q24.575122-14.335488 52.222135-15.359452t48.126281 20.479269q25.599086 25.599086 18.431342 52.734117t-31.742866 51.710153q-11.263598 11.263598-25.599086 17.407378-67.581587 48.126281-146.426771 63.485733t-158.714332 2.047927-155.642442-52.734117-136.187137-99.836435q-73.725367-73.725367-110.588051-166.394058t-36.862684-189.433235 37.374665-189.945217 111.100033-166.90604 166.394058-111.100033 189.433235-37.374665 189.945217 37.374665 166.90604 111.100033q40.958537 40.958537 69.117532 87.036892t45.054391 93.692654 24.063141 94.204636 7.167744 87.548874l93.180673 0zM577.515377 513.005681q0 26.623049-18.431342 45.566373t-45.054391 18.943324-45.566373-18.943324-18.943324-45.566373l0-192.505126q0-26.623049 18.943324-45.054391t45.566373-18.431342 45.054391 18.431342 18.431342 45.054391l0 192.505126zM514.029644 641.00111q26.623049 0 45.054391 18.943324t18.431342 45.566373-18.431342 45.054391-45.054391 18.431342-45.566373-18.431342-18.943324-45.054391 18.943324-45.566373 45.566373-18.943324z" p-id="4277"></path></svg>